<svg xmlns="http://www.w3.org/2000/svg" width="525" height="100" viewBox="0 0 525 100" role="img" aria-label="Featured Projects" xmlns:c2pa="http://c2pa.org/manifest"><metadata><c2pa:manifest>AAAWgmp1bWIAAAAeanVtZGMycGEAEQAQgAAAqgA4m3EDYzJwYQAAABZcanVtYgAAAEdqdW1kYzJtYQARABCAAACqADibcQN1cm46YzJwYTo5NDYzM2JjMS00ZmExLTQ0OTUtYWJhMy0zY2Q2MDlhMTJhMTkAAAADl2p1bWIAAAApanVtZGMyYXMAEQAQgAAAqgA4m3EDYzJwYS5hc3NlcnRpb25zAAAAALxqdW1iAAAARGp1bWRjYm9yABEAEIAAAKoAOJtxE2MycGEuaW5ncmVkaWVudC52MwAAAAAYYzJzaIZc0m/iqUVzdEKmcozGjCUAAABwY2JvcqNpZGM6Zm9ybWF0bWltYWdlL3N2Zyt4bWxqaW5zdGFuY2VJRHgseG1wOmlpZDpkMzNhNmY0ZS05N2EwLTQ2ODgtOGYwYS0wMWNiOGZhN2ExNzlscmVsYXRpb25zaGlwaHBhcmVudE9mAAAB4mp1bWIAAABBanVtZGNib3IAEQAQgAAAqgA4m3ETYzJwYS5hY3Rpb25zLnYyAAAAABhjMnNoSDQTpVBaI8+o/ZEjqU5V/QAAAZljYm9yomdhY3Rpb25zgqJmYWN0aW9ua2MycGEub3BlbmVkanBhcmFtZXRlcnOha2luZ3JlZGllbnRzgaJjdXJseC1zZWxmI2p1bWJmPWMycGEuYXNzZXJ0aW9ucy9jMnBhLmluZ3JlZGllbnQudjNkaGFzaFggq8UA7wCC7jcGCaQwY1ABVDlUFLVEfuTiJYLyRpec5IWkZmFjdGlvbngdY29tLmFudGhyb3BpYy5jbGF1ZGUucHJvdmlkZWRqcGFyYW1ldGVyc6F4H2NvbS5hbnRocm9waWMub3JpZ2luLWNvbmZpZGVuY2VndW5rbm93bmtkZXNjcmlwdGlvbnhmQ2xhdWRlIHByb3ZpZGVkIHRoaXMgZmlsZSBhdCB0aGUgcmVxdWVzdCBvZiBhIHVzZXIgYW5kIG1heSBoYXZlIGNyZWF0ZWQgb3IgbW9kaWZpZWQgdGhlIGZpbGUgY29udGVudHMubXNvZnR3YXJlQWdlbnShZG5hbWVmQ2xhdWRlcmFsbEFjdGlvbnNJbmNsdWRlZPUAAADIanVtYgAAAEBqdW1kY2JvcgARABCAAACqADibcRNjMnBhLmhhc2guZGF0YQAAAAAYYzJzaCjQtKd7UtnF4ChWlOyd5IQAAACAY2JvcqVjYWxnZnNoYTI1NmNwYWRNAAAAAAAAAAAAAAAAAGRoYXNoWCABlJFY0pJ4KL/uRt88IYfGtQr42E+1E40dzptZtOkFlGRuYW1lbmp1bWJmIG1hbmlmZXN0amV4Y2x1c2lvbnOBomVzdGFydBjAZmxlbmd0aBkeBAAAAj5qdW1iAAAAJ2p1bWRjMmNsABEAEIAAAKoAOJtxA2MycGEuY2xhaW0udjIAAAACD2Nib3KlY2FsZ2ZzaGEyNTZpc2lnbmF0dXJleE1zZWxmI2p1bWJmPS9jMnBhL3VybjpjMnBhOjk0NjMzYmMxLTRmYTEtNDQ5NS1hYmEzLTNjZDYwOWExMmExOS9jMnBhLnNpZ25hdHVyZWppbnN0YW5jZUlEeCx4bXA6aWlkOjMwMGUzODhmLWU5ZjAtNDU4MC1hNTQ2LWQyY2IwMmZkNjkzN3JjcmVhdGVkX2Fzc2VydGlvbnODomN1cmx4LXNlbGYjanVtYmY9YzJwYS5hc3NlcnRpb25zL2MycGEuaW5ncmVkaWVudC52M2RoYXNoWCCrxQDvAILuNwYJpDBjUAFUOVQUtUR+5OIlgvJGl5zkhaJjdXJseCpzZWxmI2p1bWJmPWMycGEuYXNzZXJ0aW9ucy9jMnBhLmFjdGlvbnMudjJkaGFzaFgg4Qky3NXJpbuH6V4s53aRmyryEiWh56+hbvLFMjV9gu6iY3VybHgpc2VsZiNqdW1iZj1jMnBhLmFzc2VydGlvbnMvYzJwYS5oYXNoLmRhdGFkaGFzaFgg1LXQz6z0uGoRoIRbOwcvIIhMY2QB9/IpUy5CmzLuUJ10Y2xhaW1fZ2VuZXJhdG9yX2luZm+jZG5hbWVvQW50aHJvcGljIEZpbGVzZ3ZlcnNpb25lMS4wLjBrc3BlY1ZlcnNpb25lMi40LjAAABA4anVtYgAAAChqdW1kYzJjcwARABCAAACqADibcQNjMnBhLnNpZ25hdHVyZQAAABAIY2JvctKEWQISogEmGCFZAgowggIGMIIBjaADAgECAhRA5aAK7sI50L64g/oGQgU9Z1UTADAKBggqhkjOPQQDAzBJMRcwFQYDVQQKEw5BbnRocm9waWMsIFBCQzEuMCwGA1UEAxMlQW50aHJvcGljIENvbnRlbnQgQ3JlZGVudGlhbHMgUm9vdCBDQTAeFw0yNjA4MDcxODQzNTZaFw0yODA4MDYxOTQzNTZaMEQxFzAVBgNVBAoTDkFudGhyb3BpYywgUEJDMSkwJwYDVQQDEyBBbnRocm9waWMgQ2xhdWRlIENvbnRlbnQgU2lnbmluZzBZMBMGByqGSM49AgEGCCqGSM49AwEHA0IABJh6CmvLUBgFFNU0vUKlOVtE6djd17L5SuwX0LemFisBM3dkd/3cyjxFA3Qo5S46fX0/ihY0VZ7mfb9KF703t5OjWDBWMA4GA1UdDwEB/wQEAwIHgDAVBgNVHSUEDjAMBgorBgEEAYPoXgIBMAwGA1UdEwEB/wQCMAAwHwYDVR0jBBgwFoAUzlHiBIFOZFsj+OPEz5o+nMHXXMIwCgYIKoZIzj0EAwMDZwAwZAIwMXMdFJ4BetLLVY7ORuE9noqbbAZOZn/aArXyTwFAZfKrPzxF2vPoJNf1+UCdg1XGAjBwX1zd9WGqYkqmL5SFqw1QySjr1zJfpJM9+1rdDwSPLMOPOjKuiXjoU/pUUeG9RwmhY3BhZFkNngAAAAAAAAAAAAAAAAAAAAAAAAAAAAAAAAAAAAAAAAAAAAAAAAAAAAAAAAAAAAAAAAAAAAAAAAAAAAAAAAAAAAAAAAAAAAAAAAAAAAAAAAAAAAAAAAAAAAAAAAAAAAAAAAAAAAAAAAAAAAAAAAAAAAAAAAAAAAAAAAAAAAAAAAAAAAAAAAAAAAAAAAAAAAAAAAAAAAAAAAAAAAAAAAAAAAAAAAAAAAAAAAAAAAAAAAAAAAAAAAAAAAAAAAAAAAAAAAAAAAAAAAAAAAAAAAAAAAAAAAAAAAAAAAAAAAAAAAAAAAAAAAAAAAAAAAAAAAAAAAAAAAAAAAAAAAAAAAAAAAAAAAAAAAAAAAAAAAAAAAAAAAAAAAAAAAAAAAAAAAAAAAAAAAAAAAAAAAAAAAAAAAAAAAAAAAAAAAAAAAAAAAAAAAAAAAAAAAAAAAAAAAAAAAAAAAAAAAAAAAAAAAAAAAAAAAAAAAAAAAAAAAAAAAAAAAAAAAAAAAAAAAAAAAAAAAAAAAAAAAAAAAAAAAAAAAAAAAAAAAAAAAAAAAAAAAAAAAAAAAAAAAAAAAAAAAAAAAAAAAAAAAAAAAAAAAAAAAAAAAAAAAAAAAAAAAAAAAAAAAAAAAAAAAAAAAAAAAAAAAAAAAAAAAAAAAAAAAAAAAAAAAAAAAAAAAAAAAAAAAAAAAAAAAAAAAAAAAAAAAAAAAAAAAAAAAAAAAAAAAAAAAAAAAAAAAAAAAAAAAAAAAAAAAAAAAAAAAAAAAAAAAAAAAAAAAAAAAAAAAAAAAAAAAAAAAAAAAAAAAAAAAAAAAAAAAAAAAAAAAAAAAAAAAAAAAAAAAAAAAAAAAAAAAAAAAAAAAAAAAAAAAAAAAAAAAAAAAAAAAAAAAAAAAAAAAAAAAAAAAAAAAAAAAAAAAAAAAAAAAAAAAAAAAAAAAAAAAAAAAAAAAAAAAAAAAAAAAAAAAAAAAAAAAAAAAAAAAAAAAAAAAAAAAAAAAAAAAAAAAAAAAAAAAAAAAAAAAAAAAAAAAAAAAAAAAAAAAAAAAAAAAAAAAAAAAAAAAAAAAAAAAAAAAAAAAAAAAAAAAAAAAAAAAAAAAAAAAAAAAAAAAAAAAAAAAAAAAAAAAAAAAAAAAAAAAAAAAAAAAAAAAAAAAAAAAAAAAAAAAAAAAAAAAAAAAAAAAAAAAAAAAAAAAAAAAAAAAAAAAAAAAAAAAAAAAAAAAAAAAAAAAAAAAAAAAAAAAAAAAAAAAAAAAAAAAAAAAAAAAAAAAAAAAAAAAAAAAAAAAAAAAAAAAAAAAAAAAAAAAAAAAAAAAAAAAAAAAAAAAAAAAAAAAAAAAAAAAAAAAAAAAAAAAAAAAAAAAAAAAAAAAAAAAAAAAAAAAAAAAAAAAAAAAAAAAAAAAAAAAAAAAAAAAAAAAAAAAAAAAAAAAAAAAAAAAAAAAAAAAAAAAAAAAAAAAAAAAAAAAAAAAAAAAAAAAAAAAAAAAAAAAAAAAAAAAAAAAAAAAAAAAAAAAAAAAAAAAAAAAAAAAAAAAAAAAAAAAAAAAAAAAAAAAAAAAAAAAAAAAAAAAAAAAAAAAAAAAAAAAAAAAAAAAAAAAAAAAAAAAAAAAAAAAAAAAAAAAAAAAAAAAAAAAAAAAAAAAAAAAAAAAAAAAAAAAAAAAAAAAAAAAAAAAAAAAAAAAAAAAAAAAAAAAAAAAAAAAAAAAAAAAAAAAAAAAAAAAAAAAAAAAAAAAAAAAAAAAAAAAAAAAAAAAAAAAAAAAAAAAAAAAAAAAAAAAAAAAAAAAAAAAAAAAAAAAAAAAAAAAAAAAAAAAAAAAAAAAAAAAAAAAAAAAAAAAAAAAAAAAAAAAAAAAAAAAAAAAAAAAAAAAAAAAAAAAAAAAAAAAAAAAAAAAAAAAAAAAAAAAAAAAAAAAAAAAAAAAAAAAAAAAAAAAAAAAAAAAAAAAAAAAAAAAAAAAAAAAAAAAAAAAAAAAAAAAAAAAAAAAAAAAAAAAAAAAAAAAAAAAAAAAAAAAAAAAAAAAAAAAAAAAAAAAAAAAAAAAAAAAAAAAAAAAAAAAAAAAAAAAAAAAAAAAAAAAAAAAAAAAAAAAAAAAAAAAAAAAAAAAAAAAAAAAAAAAAAAAAAAAAAAAAAAAAAAAAAAAAAAAAAAAAAAAAAAAAAAAAAAAAAAAAAAAAAAAAAAAAAAAAAAAAAAAAAAAAAAAAAAAAAAAAAAAAAAAAAAAAAAAAAAAAAAAAAAAAAAAAAAAAAAAAAAAAAAAAAAAAAAAAAAAAAAAAAAAAAAAAAAAAAAAAAAAAAAAAAAAAAAAAAAAAAAAAAAAAAAAAAAAAAAAAAAAAAAAAAAAAAAAAAAAAAAAAAAAAAAAAAAAAAAAAAAAAAAAAAAAAAAAAAAAAAAAAAAAAAAAAAAAAAAAAAAAAAAAAAAAAAAAAAAAAAAAAAAAAAAAAAAAAAAAAAAAAAAAAAAAAAAAAAAAAAAAAAAAAAAAAAAAAAAAAAAAAAAAAAAAAAAAAAAAAAAAAAAAAAAAAAAAAAAAAAAAAAAAAAAAAAAAAAAAAAAAAAAAAAAAAAAAAAAAAAAAAAAAAAAAAAAAAAAAAAAAAAAAAAAAAAAAAAAAAAAAAAAAAAAAAAAAAAAAAAAAAAAAAAAAAAAAAAAAAAAAAAAAAAAAAAAAAAAAAAAAAAAAAAAAAAAAAAAAAAAAAAAAAAAAAAAAAAAAAAAAAAAAAAAAAAAAAAAAAAAAAAAAAAAAAAAAAAAAAAAAAAAAAAAAAAAAAAAAAAAAAAAAAAAAAAAAAAAAAAAAAAAAAAAAAAAAAAAAAAAAAAAAAAAAAAAAAAAAAAAAAAAAAAAAAAAAAAAAAAAAAAAAAAAAAAAAAAAAAAAAAAAAAAAAAAAAAAAAAAAAAAAAAAAAAAAAAAAAAAAAAAAAAAAAAAAAAAAAAAAAAAAAAAAAAAAAAAAAAAAAAAAAAAAAAAAAAAAAAAAAAAAAAAAAAAAAAAAAAAAAAAAAAAAAAAAAAAAAAAAAAAAAAAAAAAAAAAAAAAAAAAAAAAAAAAAAAAAAAAAAAAAAAAAAAAAAAAAAAAAAAAAAAAAAAAAAAAAAAAAAAAAAAAAAAAAAAAAAAAAAAAAAAAAAAAAAAAAAAAAAAAAAAAAAAAAAAAAAAAAAAAAAAAAAAAAAAAAAAAAAAAAAAAAAAAAAAAAAAAAAAAAAAAAAAAAAAAAAAAAAAAAAAAAAAAAAAAAAAAAAAAAAAAAAAAAAAAAAAAAAAAAAAAAAAAAAAAAAAAAAAAAAAAAAAAAAAAAAAAAAAAAAAAAAAAAAAAAAAAAAAAAAAAAAAAAAAAAAAAAAAAAAAAAAAAAAAAAAAAAAAAAAAAAAAAAAAAAAAAAAAAAAAAAAAAAAAAAAAAAAAAAAAAAAAAAAAAAAAAAAAAAAAAAAAAAAAAAAAAAAAAAAAAAAAAAAAAAAAAAAAAAAAAAAAAAAAAAAAAAAAAAAAAAAAAAAAAAAAAAAAAAAAAAAAAAAAAAAAAAAAAAAAAAAAAAAAAAAAAAAAAAAAAAAAAAAAAAAAAAAAAAAAAAAAAAAAAAAAAAAAAAAAAAAAAAAAAAAAAAAAAAAAAAAAAAAAAAAAAAAAAAAAAAAAAAAAAAAAAAAAAAAAAAAAAAAAAAAAAAAAAAAAAAAAAAAAAAAAAAAAAAAAAAAAAAAAAAAAAAAAAAAAAAAAAAAAAAAAAAAAAAAAAAAAAAAAAAAAAAAAAAAAAAAAAAAAAAAAAAAAAAAAAAAAAAAAAAAAAAAAAAAAAAAAAAAAAAAAAAAAAAAAAAAAAAAAAAAAAAAAAAAAAAAAAAAAAAAAAAAAAAAAAAAAAAAAAAAAAAAAAAAAAAAAAAAAAAAAAAAAAAAAAAAAAAAAAAAAAAAAAAAAAAAAAAAAAAAAAAAAAAAAAAAAAAAAAAAAAAAAAAAAAAAAAAAAAAAAAAAAAAAAAAAAAAAAAAAAAAAAAAAAAAAAAAAAAAAAAAAAAAAAAAAAAAAAAAAAAAAAAAAAAAAAAAAAAAAAAAAAAAAAAAAAAAAAAAAAAAAAAAAAAAAAAAAAAAAAAAAAAAAAAAAAAAAAAAAAAAAAAAAAAAAAAAAAAAAAAAAAAAAAAAAAAAAAAAAAAAAAAAAAAAAAAAAAAAAAAAAAAAAAAAAAAAAAAAAAAAAAAAAAAAAAAAAAAAAAAAAAAAAAAAAAAAAAAAAAAAAAAAAAAAAAAAAAAAAAAAAAAAAAAAAAAAAAAAAAAAAAAAAAAAAAAAAAAAAAAAAAAAAAAAAAAAAAAAAAAAAAAAAAAAAAAAAAAAAAAAAAAAAAAAAAAAAAAAAAAAAAAAAAAAAAAAAAAAAAAAAAAAAAAAAAAAAAAAAAAAAAAAAAAAAAAAAAAAAAAAAAAAAAAAAAAAAAAAAAAAAAAAAAAAAAAAAAAAAAAAAAAAAAAAAAAAAAAAAAAAAAAAAAAAAAAAAAAAAAAAAAAAAAAAAAAAAAAAAAAAAAAAAAAAAAAAAAAAAAAAAAAAAAAAAAAAAAAAAAAAAAAAAAAAAAAAAAAAAAAAAAAAAAAAAAAAAAAAAAAAAAAAAAAAAAAAAAAAAAAAAAAAAAAAAAAAAAAAAAAAAAAAAAAAAAAAAAAAAAAAAAAAAAAAAAAAAAAAAAAAPZYQDgGXTXzEgFrtQQZrrQxZI9fXNi9OSGPi6K1jNMfF4NH5PJbrqkdMUdUz8IMV6Stg7WxROyhJHGsF6tezGA3qXQ=</c2pa:manifest></metadata>
  <defs>
    <pattern id="dots" width="7" height="7" patternUnits="userSpaceOnUse" patternTransform="rotate(30)">
      <circle cx="2" cy="2" r="1.3" fill="#000" fill-opacity="0.28"/>
    </pattern>
    <clipPath id="clip"><polygon points="32,12 511.256,12 493.256,84 14,84"/></clipPath>
  </defs>
  <!-- white offset plate -->
  <polygon points="32,12 511.256,12 493.256,84 14,84" transform="translate(7,7)" fill="#FFFFFF"/>
  <!-- black outline plate -->
  <polygon points="32,12 511.256,12 493.256,84 14,84" transform="translate(3,3)" fill="#000000"/>
  <!-- red plate -->
  <polygon points="32,12 511.256,12 493.256,84 14,84" fill="#E10600"/>
  <g clip-path="url(#clip)">
    <polygon points="305.4908,12 511.256,12 493.256,84 285.4908,84" fill="url(#dots)"/>
    <polygon points="32,12 58,12 40,84 14,84" fill="#8B0000" fill-opacity="0.55"/>
  </g>
  <polygon points="32,12 511.256,12 493.256,84 14,84" fill="none" stroke="#000" stroke-width="3" stroke-linejoin="miter"/>
  <!-- comic spikes -->
  <polygon points="465.256,14 481.256,-2 487.256,14" fill="#E10600" stroke="#000" stroke-width="2"/>
  <polygon points="48,82 66,98 76,82" fill="#FFFFFF" stroke="#000" stroke-width="2"/>
  <!-- text: black shadow then white fill -->
  <g transform="translate(68.5,70.5)"><path d="M0.216 0.054Q0.972 -2.538 1.674 -5.859Q2.376 -9.18 2.997 -12.636Q3.618 -16.092 4.1579999999999995 -19.061999999999998Q4.6979999999999995 -22.032 5.022 -23.976Q5.616 -27.594 6.183 -31.293Q6.75 -34.992 7.29 -38.826L25.38 -39.744L23.814 -33.102H15.336L13.661999999999999 -23.49Q14.526 -23.544 15.309 -23.544Q16.092 -23.544 16.848 -23.544H19.386Q20.034 -23.544 20.52 -23.544Q21.006 -23.544 21.384 -23.598Q21.33 -22.842 21.222 -22.113Q21.114 -21.384 21.006 -20.628L20.52 -17.712Q19.386 -17.712 17.253 -17.793Q15.12 -17.874 12.744 -17.928L10.26 -1.998Q9.342 -1.836 8.451 -1.674Q7.56 -1.512 6.642 -1.296Q5.13 -1.026 3.348 -0.648Q1.566 -0.27 0.216 0.054Z M21.846 0.054 28.92 -38.339999999999996 45.984 -39.798Q45.606 -38.61 45.336 -37.368Q45.066 -36.342 44.823 -35.235Q44.58 -34.128 44.418000000000006 -33.264Q43.716 -33.21 42.42 -33.183Q41.124 -33.156 39.774 -33.129Q38.42400000000001 -33.102 37.452000000000005 -33.102Q36.480000000000004 -33.102 36.426 -33.102L34.536 -23.436L37.668000000000006 -23.598Q38.262 -23.652 38.883 -23.652Q39.504000000000005 -23.652 40.098 -23.652Q40.692 -23.652 41.178 -23.652Q41.664 -23.652 41.934 -23.706Q41.826 -22.95 41.745000000000005 -22.221Q41.664 -21.492 41.556 -20.736L41.07 -17.766Q40.8 -17.712 40.367999999999995 -17.712Q39.936 -17.712 39.342 -17.712Q38.748000000000005 -17.658 38.1 -17.658Q37.452 -17.658 36.858000000000004 -17.604Q36.156 -17.55 35.400000000000006 -17.55Q34.644000000000005 -17.55 33.78 -17.496L31.944000000000003 -7.56L39.828 -8.802L39.288 -2.646Z M56.81400000000001 -0.108Q56.922000000000004 -1.026 57.03 -1.8900000000000001Q57.138000000000005 -2.754 57.246 -3.618L57.57 -6.642Q57.624 -7.398 57.678 -8.046Q57.732 -8.693999999999999 57.786 -9.234H53.088L50.928000000000004 -1.458Q49.74 -1.296 48.120000000000005 -1.107Q46.5 -0.918 45.096000000000004 -0.756Q44.232 -0.648 43.394999999999996 -0.54Q42.558 -0.432 41.694 -0.324L45.96 -14.472Q46.716 -17.01 47.688 -20.25Q48.660000000000004 -23.49 49.659000000000006 -26.892Q50.658 -30.294 51.54900000000001 -33.291Q52.440000000000005 -36.288 52.980000000000004 -38.339999999999996Q56.652 -38.61 60.459 -38.988Q64.266 -39.366 67.884 -40.014Q67.614 -36.99 67.37100000000001 -33.183Q67.128 -29.376 66.939 -25.326Q66.75 -21.276 66.534 -17.334Q66.426 -13.608 66.26400000000001 -9.639Q66.102 -5.67 65.94 -1.512Q65.13 -1.404 64.32 -1.2959999999999998Q63.510000000000005 -1.188 62.7 -1.08Q61.35 -0.864 59.730000000000004 -0.594Q58.11 -0.324 56.81400000000001 -0.108ZM54.384 -14.634Q54.708 -14.634 55.599000000000004 -14.687999999999999Q56.49 -14.741999999999999 57.3 -14.796Q58.11 -14.85 58.272000000000006 -14.85Q58.272000000000006 -15.552 58.488 -17.712Q58.704 -19.872 58.92 -22.248Q59.028000000000006 -23.652 59.163000000000004 -25.137Q59.298 -26.622 59.46000000000001 -28.188L59.784000000000006 -32.886L58.974000000000004 -32.832L57.732 -28.188Z M74.07000000000001 0.054Q74.664 -2.916 75.285 -5.859Q75.906 -8.802 76.44600000000001 -11.664Q78.498 -21.924 79.79400000000001 -31.32Q79.2 -31.428 78.552 -31.455Q77.90400000000001 -31.482 77.31 -31.428Q76.01400000000001 -31.32 74.772 -31.752Q74.82600000000001 -32.184 74.82600000000001 -32.697Q74.82600000000001 -33.21 74.82600000000001 -33.75Q74.82600000000001 -34.344 74.82600000000001 -34.911Q74.82600000000001 -35.478 74.88000000000001 -36.018Q74.93400000000001 -36.612 74.93400000000001 -37.287Q74.93400000000001 -37.961999999999996 74.98800000000001 -38.664Q76.39200000000001 -38.556 77.796 -38.501999999999995Q79.2 -38.448 80.60400000000001 -38.448Q84.60000000000001 -38.448 88.245 -38.718Q91.89000000000001 -38.988 94.968 -39.366L94.37400000000001 -36.45L93.888 -33.912Q93.61800000000001 -32.508 93.40200000000002 -31.698Q92.808 -31.536 92.214 -31.428Q91.62 -31.32 91.02600000000001 -31.266Q90.43200000000002 -31.212 89.811 -31.104Q89.19000000000001 -30.996 88.596 -30.887999999999998Q87.786 -26.892 87.273 -23.976Q86.76 -21.06 86.355 -18.387Q85.95 -15.714 85.41000000000001 -12.528Q84.492 -7.074 83.79 -1.458Z M100.668 0.972Q99.04800000000002 0.972 97.37400000000002 0.27Q95.70000000000002 -0.432 94.56600000000002 -1.89Q93.43200000000002 -3.348 93.43200000000002 -5.616V-6.048Q93.43200000000002 -6.318 93.486 -6.4799999999999995Q93.64800000000001 -7.884 93.94500000000001 -10.152000000000001Q94.242 -12.42 94.674 -15.093Q95.10600000000001 -17.766 95.56500000000001 -20.412Q96.02400000000002 -23.058 96.40200000000002 -25.218Q97.212 -29.538 97.69800000000001 -32.184Q98.18400000000001 -34.83 98.48100000000001 -36.260999999999996Q98.778 -37.692 98.94000000000001 -38.394L107.85000000000001 -39.258Q107.14800000000001 -35.964 106.52700000000002 -33.021Q105.906 -30.078 105.36600000000001 -27.432L102.882 -15.498Q102.558 -14.148 102.39600000000002 -13.23Q102.18 -12.366 101.93700000000001 -11.043Q101.69400000000002 -9.72 101.69400000000002 -8.64Q101.69400000000002 -7.776 102.126 -7.209Q102.558 -6.642 103.20600000000002 -6.642Q104.12400000000001 -6.642 104.71800000000002 -7.343999999999999Q105.31200000000001 -8.046 105.69000000000001 -9.072Q106.06800000000001 -10.098 106.28400000000002 -11.151Q106.50000000000001 -12.204 106.662 -12.852Q107.20200000000001 -15.336 107.661 -17.685Q108.12 -20.034 108.63300000000001 -22.68Q109.14600000000002 -25.326 109.79400000000001 -28.782Q110.22600000000001 -31.158 110.685 -33.615Q111.144 -36.072 111.57600000000001 -38.61L119.784 -39.15L117.894 -28.727999999999998Q117.516 -26.73 117.05700000000002 -24.246000000000002Q116.59800000000001 -21.762 116.058 -19.224Q115.518 -16.686 115.059 -14.418Q114.60000000000001 -12.15 114.22200000000001 -10.53Q113.14200000000001 -6.102 110.87400000000001 -3.591Q108.60600000000001 -1.08 105.87900000000002 -0.05400000000000005Q103.15200000000002 0.972 100.668 0.972Z M117.60000000000001 0.054 120.40800000000002 -13.986Q121.05600000000001 -17.874 121.81200000000001 -21.978Q122.56800000000001 -26.082 123.24300000000002 -30.078Q123.91800000000002 -34.074 124.29600000000002 -37.583999999999996Q127.37400000000001 -38.556 130.93800000000002 -39.015Q134.502 -39.474 138.012 -39.474Q142.116 -39.474 143.601 -37.69199999999999Q145.086 -35.91 145.086 -32.886Q145.086 -30.131999999999998 143.79000000000002 -27.351Q142.49400000000003 -24.57 140.41500000000002 -22.329Q138.336 -20.088 135.852 -18.791999999999998Q136.824 -16.632 137.931 -14.067Q139.038 -11.502 140.01000000000002 -9.18Q140.55 -7.83 141.11700000000002 -6.48Q141.68400000000003 -5.13 142.22400000000002 -3.78L133.854 -0.864Q133.31400000000002 -2.754 132.82800000000003 -4.482Q132.342 -6.21 131.91000000000003 -7.884Q131.37 -9.882 130.88400000000001 -11.745000000000001Q130.39800000000002 -13.608 130.04700000000003 -15.066Q129.69600000000003 -16.524 129.64200000000002 -17.118L128.94000000000003 -16.902Q128.616 -15.174 128.157 -12.69Q127.69800000000001 -10.206 127.32000000000002 -7.884L126.34800000000001 -2.214ZM130.29000000000002 -23.382Q131.262 -23.49 132.693 -24.219Q134.12400000000002 -24.948 135.555 -26.028Q136.98600000000002 -27.108 137.95800000000003 -28.242Q138.93 -29.376 138.93 -30.24Q138.93 -31.32 137.661 -31.671Q136.39200000000002 -32.022 134.34 -32.022H133.15200000000002Q132.828 -31.968 132.558 -31.968Q132.288 -31.968 132.01800000000003 -31.968Z M144.792 0.054 151.866 -38.339999999999996 168.93 -39.798Q168.55200000000002 -38.61 168.282 -37.368Q168.012 -36.342 167.769 -35.235Q167.526 -34.128 167.364 -33.264Q166.662 -33.21 165.366 -33.183Q164.07000000000002 -33.156 162.72000000000003 -33.129Q161.37 -33.102 160.39800000000002 -33.102Q159.42600000000002 -33.102 159.372 -33.102L157.48200000000003 -23.436L160.614 -23.598Q161.20800000000003 -23.652 161.829 -23.652Q162.45000000000002 -23.652 163.044 -23.652Q163.638 -23.652 164.12400000000002 -23.652Q164.61 -23.652 164.88000000000002 -23.706Q164.77200000000002 -22.95 164.69100000000003 -22.221Q164.61 -21.492 164.502 -20.736L164.01600000000002 -17.766Q163.746 -17.712 163.31400000000002 -17.712Q162.882 -17.712 162.288 -17.712Q161.69400000000002 -17.658 161.04600000000002 -17.658Q160.39800000000002 -17.658 159.804 -17.604Q159.102 -17.55 158.346 -17.55Q157.59 -17.55 156.726 -17.496L154.89000000000001 -7.56L162.774 -8.802L162.234 -2.646Z M169.014 0.27Q168.258 0.27 167.502 0.189Q166.746 0.108 165.99 0.0L168.852 -14.526Q169.392 -17.496 170.013 -20.817Q170.63400000000001 -24.137999999999998 171.228 -27.405Q171.822 -30.672 172.281 -33.48Q172.74 -36.288 173.01 -38.232Q175.332 -38.664 177.708 -39.042Q180.084 -39.42 182.568 -39.42Q186.564 -39.42 188.886 -37.772999999999996Q191.208 -36.126 192.23399999999998 -33.453Q193.26 -30.78 193.26 -27.594Q193.26 -24.732 192.45 -21.573Q191.64 -18.414 190.155 -15.309000000000001Q188.67000000000002 -12.204 186.618 -9.45Q183.43200000000002 -5.184 178.86900000000003 -2.457Q174.306 0.27 169.014 0.27ZM175.44 -6.534Q177.33 -7.776 179.031 -10.314Q180.732 -12.852 182.244 -16.416Q183.594 -19.71 184.35 -22.653Q185.106 -25.596 185.106 -27.54Q185.106 -29.538 183.999 -30.672Q182.892 -31.806 180.516 -31.806Q179.652 -27.162 178.761 -23.22Q177.87 -19.278 177.03300000000002 -15.282Q176.196 -11.286 175.44 -6.534Z M212.426 0.054Q214.046 -7.236 215.504 -14.202Q216.09799999999998 -17.01 216.719 -20.223Q217.34 -23.436 217.988 -26.73Q218.636 -30.024 219.176 -32.967Q219.716 -35.91 220.04 -38.124Q222.2 -38.772 224.71099999999998 -39.312Q227.22199999999998 -39.852 229.22 -39.852Q232.45999999999998 -39.852 234.35 -38.474999999999994Q236.24 -37.098 237.05 -34.775999999999996Q237.85999999999999 -32.454 237.85999999999999 -29.7Q237.85999999999999 -26.676 236.753 -23.895Q235.646 -21.114 233.783 -18.9Q231.92 -16.686 229.517 -15.39Q227.114 -14.094 224.522 -14.094H223.928Q223.49599999999998 -12.258 223.118 -10.097999999999999Q222.73999999999998 -7.938 222.47 -6.102Q222.254 -5.022 222.09199999999998 -3.942Q221.93 -2.862 221.768 -1.782ZM225.00799999999998 -19.764Q226.25 -20.088 227.492 -21.411Q228.73399999999998 -22.733999999999998 229.54399999999998 -24.786Q230.35399999999998 -26.838 230.35399999999998 -29.268Q230.35399999999998 -31.266 229.463 -32.292Q228.572 -33.318 227.492 -33.318Q226.898 -29.754 226.30399999999997 -26.568Q225.70999999999998 -23.382 225.00799999999998 -19.764Z M236.27 0.054 239.078 -13.986Q239.726 -17.874 240.482 -21.978Q241.238 -26.082 241.913 -30.078Q242.588 -34.074 242.966 -37.583999999999996Q246.044 -38.556 249.608 -39.015Q253.172 -39.474 256.682 -39.474Q260.786 -39.474 262.27099999999996 -37.69199999999999Q263.756 -35.91 263.756 -32.886Q263.756 -30.131999999999998 262.46 -27.351Q261.164 -24.57 259.085 -22.329Q257.006 -20.088 254.522 -18.791999999999998Q255.494 -16.632 256.601 -14.067Q257.708 -11.502 258.68 -9.18Q259.22 -7.83 259.78700000000003 -6.48Q260.354 -5.13 260.894 -3.78L252.524 -0.864Q251.984 -2.754 251.498 -4.482Q251.012 -6.21 250.58 -7.884Q250.04 -9.882 249.554 -11.745000000000001Q249.068 -13.608 248.717 -15.066Q248.366 -16.524 248.312 -17.118L247.61 -16.902Q247.286 -15.174 246.827 -12.69Q246.368 -10.206 245.99 -7.884L245.018 -2.214ZM248.96 -23.382Q249.93200000000002 -23.49 251.363 -24.219Q252.794 -24.948 254.22500000000002 -26.028Q255.656 -27.108 256.62800000000004 -28.242Q257.6 -29.376 257.6 -30.24Q257.6 -31.32 256.331 -31.671Q255.062 -32.022 253.01 -32.022H251.822Q251.498 -31.968 251.228 -31.968Q250.958 -31.968 250.688 -31.968Z M272.804 0.216Q269.23999999999995 0.216 266.972 -2.538Q264.70399999999995 -5.292 264.70399999999995 -10.854Q264.70399999999995 -13.932 265.4599999999999 -17.334Q266.21599999999995 -20.736 267.566 -24.03Q268.916 -27.323999999999998 270.698 -30.131999999999998Q273.55999999999995 -34.668 277.28599999999994 -37.53Q281.01199999999994 -40.392 285.116 -40.392Q288.356 -40.392 290.111 -38.745000000000005Q291.866 -37.098 292.568 -34.533Q293.27 -31.968 293.27 -29.214Q293.27 -22.788 291.299 -17.253Q289.328 -11.718 286.19599999999997 -7.884Q283.06399999999996 -3.942 279.52699999999993 -1.863Q275.98999999999995 0.216 272.804 0.216ZM275.71999999999997 -8.693999999999999Q278.15 -8.693999999999999 280.013 -10.314Q281.876 -11.934 283.17199999999997 -14.445Q284.46799999999996 -16.956 285.116 -19.71Q285.76399999999995 -22.464 285.76399999999995 -24.678Q285.76399999999995 -25.541999999999998 285.602 -26.540999999999997Q285.44 -27.54 284.9 -28.296Q284.35999999999996 -29.052 283.226 -29.052Q280.74199999999996 -29.052 278.74399999999997 -27.243000000000002Q276.746 -25.434 275.39599999999996 -22.68Q274.046 -19.872 273.398 -17.172Q272.75 -14.472 272.75 -12.258Q272.75 -11.124 273.55999999999995 -9.908999999999999Q274.36999999999995 -8.693999999999999 275.71999999999997 -8.693999999999999Z M298.322 0.054Q296.81 0.054 295.055 -0.594Q293.3 -1.242 291.19399999999996 -2.808L294.91999999999996 -11.124Q295.19 -10.584 295.97299999999996 -10.178999999999998Q296.756 -9.774 297.674 -9.774Q298.376 -9.774 298.91599999999994 -10.908Q299.45599999999996 -12.042 299.807 -13.661999999999999Q300.158 -15.282 300.374 -16.713Q300.59 -18.144 300.644 -18.738Q301.18399999999997 -21.384 301.66999999999996 -23.976Q302.156 -26.568 302.58799999999997 -29.214Q303.02 -31.806 303.587 -34.398Q304.154 -36.99 304.748 -39.582Q307.178 -39.798 309.527 -40.257000000000005Q311.876 -40.716 314.252 -41.364Q313.442 -38.61 312.578 -35.126999999999995Q311.714 -31.644 310.904 -27.918Q310.094 -24.192 309.365 -20.682000000000002Q308.63599999999997 -17.172 308.096 -14.363999999999999Q307.61 -12.096 306.908 -9.585Q306.20599999999996 -7.074 305.072 -4.8870000000000005Q303.938 -2.7 302.291 -1.3230000000000002Q300.644 0.054 298.322 0.054Z M311.15 0.054 318.22399999999993 -38.339999999999996 335.28799999999995 -39.798Q334.90999999999997 -38.61 334.64 -37.368Q334.36999999999995 -36.342 334.12699999999995 -35.235Q333.88399999999996 -34.128 333.722 -33.264Q333.02 -33.21 331.72399999999993 -33.183Q330.42799999999994 -33.156 329.078 -33.129Q327.72799999999995 -33.102 326.756 -33.102Q325.78399999999993 -33.102 325.72999999999996 -33.102L323.84 -23.436L326.972 -23.598Q327.566 -23.652 328.18699999999995 -23.652Q328.80799999999994 -23.652 329.402 -23.652Q329.996 -23.652 330.48199999999997 -23.652Q330.96799999999996 -23.652 331.23799999999994 -23.706Q331.12999999999994 -22.95 331.049 -22.221Q330.96799999999996 -21.492 330.85999999999996 -20.736L330.37399999999997 -17.766Q330.104 -17.712 329.67199999999997 -17.712Q329.23999999999995 -17.712 328.64599999999996 -17.712Q328.05199999999996 -17.658 327.404 -17.658Q326.756 -17.658 326.162 -17.604Q325.46 -17.55 324.70399999999995 -17.55Q323.948 -17.55 323.08399999999995 -17.496L321.24799999999993 -7.56L329.13199999999995 -8.802L328.592 -2.646Z M341.9599999999999 0.108Q338.55799999999994 0.108 336.3979999999999 -3.0780000000000003Q334.23799999999994 -6.264 334.23799999999994 -11.826Q334.23799999999994 -16.902 335.64199999999994 -21.843Q337.04599999999994 -26.784 339.58399999999995 -30.726Q342.12199999999996 -34.668 345.60499999999996 -37.071Q349.08799999999997 -39.474 353.29999999999995 -39.474Q355.94599999999997 -39.474 357.83599999999996 -37.422Q359.72599999999994 -35.37 359.72599999999994 -31.913999999999998V-31.266Q359.72599999999994 -31.05 359.72599999999994 -30.887999999999998Q359.72599999999994 -30.726 359.67199999999997 -30.509999999999998L352.59799999999996 -28.62Q351.94999999999993 -29.97 351.08599999999996 -29.97Q349.78999999999996 -29.97 348.3589999999999 -27.863999999999997Q346.92799999999994 -25.758 345.63199999999995 -22.842Q344.768 -20.898 344.09299999999996 -18.846Q343.41799999999995 -16.794 343.03999999999996 -15.012Q342.6619999999999 -13.23 342.6619999999999 -12.096Q342.6619999999999 -10.422 343.14799999999997 -9.666Q343.52599999999995 -8.964 344.33599999999996 -8.964Q345.14599999999996 -8.964 346.11799999999994 -9.747Q347.09 -10.53 347.92699999999996 -11.718Q348.76399999999995 -12.906 349.03399999999993 -14.094L355.18999999999994 -11.61Q352.5439999999999 -5.562 348.89899999999994 -2.7270000000000003Q345.25399999999996 0.108 341.9599999999999 0.108Z M362.34799999999996 0.054Q362.94199999999995 -2.916 363.563 -5.859Q364.18399999999997 -8.802 364.72399999999993 -11.664Q366.77599999999995 -21.924 368.07199999999995 -31.32Q367.47799999999995 -31.428 366.8299999999999 -31.455Q366.18199999999996 -31.482 365.58799999999997 -31.428Q364.2919999999999 -31.32 363.04999999999995 -31.752Q363.1039999999999 -32.184 363.1039999999999 -32.697Q363.1039999999999 -33.21 363.1039999999999 -33.75Q363.1039999999999 -34.344 363.1039999999999 -34.911Q363.1039999999999 -35.478 363.15799999999996 -36.018Q363.21199999999993 -36.612 363.21199999999993 -37.287Q363.21199999999993 -37.961999999999996 363.26599999999996 -38.664Q364.66999999999996 -38.556 366.07399999999996 -38.501999999999995Q367.47799999999995 -38.448 368.88199999999995 -38.448Q372.87799999999993 -38.448 376.5229999999999 -38.718Q380.16799999999995 -38.988 383.2459999999999 -39.366L382.65199999999993 -36.45L382.16599999999994 -33.912Q381.89599999999996 -32.508 381.67999999999995 -31.698Q381.08599999999996 -31.536 380.49199999999996 -31.428Q379.89799999999997 -31.32 379.3039999999999 -31.266Q378.7099999999999 -31.212 378.08899999999994 -31.104Q377.46799999999996 -30.996 376.87399999999997 -30.887999999999998Q376.06399999999996 -26.892 375.55099999999993 -23.976Q375.03799999999995 -21.06 374.6329999999999 -18.387Q374.22799999999995 -15.714 373.68799999999993 -12.528Q372.7699999999999 -7.074 372.0679999999999 -1.458Z M389.2699999999999 0.108Q387.10999999999996 0.108 384.94999999999993 -1.053Q382.78999999999996 -2.214 380.7919999999999 -4.752L384.78799999999995 -12.582Q385.38199999999995 -11.556 386.54299999999995 -10.638Q387.70399999999995 -9.72 388.99999999999994 -9.18Q390.29599999999994 -8.64 391.21399999999994 -8.64Q392.61799999999994 -8.64 393.88699999999994 -9.504000000000001Q395.15599999999995 -10.368 395.15599999999995 -11.826Q395.15599999999995 -13.716 393.42799999999994 -15.282Q391.69999999999993 -16.848 389.53999999999996 -18.36Q387.43399999999997 -19.872 385.679 -21.789Q383.9239999999999 -23.706 383.9239999999999 -26.19Q383.9239999999999 -28.998 385.5439999999999 -31.401000000000003Q387.16399999999993 -33.804 389.756 -35.613Q392.34799999999996 -37.422 395.29099999999994 -38.421Q398.2339999999999 -39.42 400.87999999999994 -39.42Q402.7699999999999 -39.42 404.38999999999993 -38.799Q406.00999999999993 -38.178 406.98199999999997 -36.774Q407.95399999999995 -35.37 407.95399999999995 -32.994Q407.95399999999995 -32.616 407.9269999999999 -32.238Q407.8999999999999 -31.86 407.84599999999995 -31.482Q407.7919999999999 -31.104 407.7109999999999 -30.698999999999998Q407.62999999999994 -30.294 407.57599999999996 -29.862L399.7459999999999 -27.594Q399.8539999999999 -28.026 399.93499999999995 -28.458Q400.01599999999996 -28.89 400.01599999999996 -29.322Q400.01599999999996 -30.942 399.44899999999996 -31.671Q398.88199999999995 -32.4 397.96399999999994 -32.4Q397.47799999999995 -32.4 396.55999999999995 -31.887Q395.64199999999994 -31.374 394.91299999999995 -30.482999999999997Q394.18399999999997 -29.592 394.18399999999997 -28.512Q394.18399999999997 -26.73 395.669 -25.569000000000003Q397.15399999999994 -24.408 399.09799999999996 -23.22Q400.01599999999996 -22.68 401.15 -21.519Q402.28399999999993 -20.358 403.121 -18.387Q403.95799999999997 -16.416 403.95799999999997 -13.338Q403.95799999999997 -9.342 401.98699999999997 -6.3180000000000005Q400.01599999999996 -3.294 396.66799999999995 -1.593Q393.31999999999994 0.108 389.2699999999999 0.108Z" fill="#000"/></g>
  <g transform="translate(65.5,67.5)"><path d="M0.216 0.054Q0.972 -2.538 1.674 -5.859Q2.376 -9.18 2.997 -12.636Q3.618 -16.092 4.1579999999999995 -19.061999999999998Q4.6979999999999995 -22.032 5.022 -23.976Q5.616 -27.594 6.183 -31.293Q6.75 -34.992 7.29 -38.826L25.38 -39.744L23.814 -33.102H15.336L13.661999999999999 -23.49Q14.526 -23.544 15.309 -23.544Q16.092 -23.544 16.848 -23.544H19.386Q20.034 -23.544 20.52 -23.544Q21.006 -23.544 21.384 -23.598Q21.33 -22.842 21.222 -22.113Q21.114 -21.384 21.006 -20.628L20.52 -17.712Q19.386 -17.712 17.253 -17.793Q15.12 -17.874 12.744 -17.928L10.26 -1.998Q9.342 -1.836 8.451 -1.674Q7.56 -1.512 6.642 -1.296Q5.13 -1.026 3.348 -0.648Q1.566 -0.27 0.216 0.054Z M21.846 0.054 28.92 -38.339999999999996 45.984 -39.798Q45.606 -38.61 45.336 -37.368Q45.066 -36.342 44.823 -35.235Q44.58 -34.128 44.418000000000006 -33.264Q43.716 -33.21 42.42 -33.183Q41.124 -33.156 39.774 -33.129Q38.42400000000001 -33.102 37.452000000000005 -33.102Q36.480000000000004 -33.102 36.426 -33.102L34.536 -23.436L37.668000000000006 -23.598Q38.262 -23.652 38.883 -23.652Q39.504000000000005 -23.652 40.098 -23.652Q40.692 -23.652 41.178 -23.652Q41.664 -23.652 41.934 -23.706Q41.826 -22.95 41.745000000000005 -22.221Q41.664 -21.492 41.556 -20.736L41.07 -17.766Q40.8 -17.712 40.367999999999995 -17.712Q39.936 -17.712 39.342 -17.712Q38.748000000000005 -17.658 38.1 -17.658Q37.452 -17.658 36.858000000000004 -17.604Q36.156 -17.55 35.400000000000006 -17.55Q34.644000000000005 -17.55 33.78 -17.496L31.944000000000003 -7.56L39.828 -8.802L39.288 -2.646Z M56.81400000000001 -0.108Q56.922000000000004 -1.026 57.03 -1.8900000000000001Q57.138000000000005 -2.754 57.246 -3.618L57.57 -6.642Q57.624 -7.398 57.678 -8.046Q57.732 -8.693999999999999 57.786 -9.234H53.088L50.928000000000004 -1.458Q49.74 -1.296 48.120000000000005 -1.107Q46.5 -0.918 45.096000000000004 -0.756Q44.232 -0.648 43.394999999999996 -0.54Q42.558 -0.432 41.694 -0.324L45.96 -14.472Q46.716 -17.01 47.688 -20.25Q48.660000000000004 -23.49 49.659000000000006 -26.892Q50.658 -30.294 51.54900000000001 -33.291Q52.440000000000005 -36.288 52.980000000000004 -38.339999999999996Q56.652 -38.61 60.459 -38.988Q64.266 -39.366 67.884 -40.014Q67.614 -36.99 67.37100000000001 -33.183Q67.128 -29.376 66.939 -25.326Q66.75 -21.276 66.534 -17.334Q66.426 -13.608 66.26400000000001 -9.639Q66.102 -5.67 65.94 -1.512Q65.13 -1.404 64.32 -1.2959999999999998Q63.510000000000005 -1.188 62.7 -1.08Q61.35 -0.864 59.730000000000004 -0.594Q58.11 -0.324 56.81400000000001 -0.108ZM54.384 -14.634Q54.708 -14.634 55.599000000000004 -14.687999999999999Q56.49 -14.741999999999999 57.3 -14.796Q58.11 -14.85 58.272000000000006 -14.85Q58.272000000000006 -15.552 58.488 -17.712Q58.704 -19.872 58.92 -22.248Q59.028000000000006 -23.652 59.163000000000004 -25.137Q59.298 -26.622 59.46000000000001 -28.188L59.784000000000006 -32.886L58.974000000000004 -32.832L57.732 -28.188Z M74.07000000000001 0.054Q74.664 -2.916 75.285 -5.859Q75.906 -8.802 76.44600000000001 -11.664Q78.498 -21.924 79.79400000000001 -31.32Q79.2 -31.428 78.552 -31.455Q77.90400000000001 -31.482 77.31 -31.428Q76.01400000000001 -31.32 74.772 -31.752Q74.82600000000001 -32.184 74.82600000000001 -32.697Q74.82600000000001 -33.21 74.82600000000001 -33.75Q74.82600000000001 -34.344 74.82600000000001 -34.911Q74.82600000000001 -35.478 74.88000000000001 -36.018Q74.93400000000001 -36.612 74.93400000000001 -37.287Q74.93400000000001 -37.961999999999996 74.98800000000001 -38.664Q76.39200000000001 -38.556 77.796 -38.501999999999995Q79.2 -38.448 80.60400000000001 -38.448Q84.60000000000001 -38.448 88.245 -38.718Q91.89000000000001 -38.988 94.968 -39.366L94.37400000000001 -36.45L93.888 -33.912Q93.61800000000001 -32.508 93.40200000000002 -31.698Q92.808 -31.536 92.214 -31.428Q91.62 -31.32 91.02600000000001 -31.266Q90.43200000000002 -31.212 89.811 -31.104Q89.19000000000001 -30.996 88.596 -30.887999999999998Q87.786 -26.892 87.273 -23.976Q86.76 -21.06 86.355 -18.387Q85.95 -15.714 85.41000000000001 -12.528Q84.492 -7.074 83.79 -1.458Z M100.668 0.972Q99.04800000000002 0.972 97.37400000000002 0.27Q95.70000000000002 -0.432 94.56600000000002 -1.89Q93.43200000000002 -3.348 93.43200000000002 -5.616V-6.048Q93.43200000000002 -6.318 93.486 -6.4799999999999995Q93.64800000000001 -7.884 93.94500000000001 -10.152000000000001Q94.242 -12.42 94.674 -15.093Q95.10600000000001 -17.766 95.56500000000001 -20.412Q96.02400000000002 -23.058 96.40200000000002 -25.218Q97.212 -29.538 97.69800000000001 -32.184Q98.18400000000001 -34.83 98.48100000000001 -36.260999999999996Q98.778 -37.692 98.94000000000001 -38.394L107.85000000000001 -39.258Q107.14800000000001 -35.964 106.52700000000002 -33.021Q105.906 -30.078 105.36600000000001 -27.432L102.882 -15.498Q102.558 -14.148 102.39600000000002 -13.23Q102.18 -12.366 101.93700000000001 -11.043Q101.69400000000002 -9.72 101.69400000000002 -8.64Q101.69400000000002 -7.776 102.126 -7.209Q102.558 -6.642 103.20600000000002 -6.642Q104.12400000000001 -6.642 104.71800000000002 -7.343999999999999Q105.31200000000001 -8.046 105.69000000000001 -9.072Q106.06800000000001 -10.098 106.28400000000002 -11.151Q106.50000000000001 -12.204 106.662 -12.852Q107.20200000000001 -15.336 107.661 -17.685Q108.12 -20.034 108.63300000000001 -22.68Q109.14600000000002 -25.326 109.79400000000001 -28.782Q110.22600000000001 -31.158 110.685 -33.615Q111.144 -36.072 111.57600000000001 -38.61L119.784 -39.15L117.894 -28.727999999999998Q117.516 -26.73 117.05700000000002 -24.246000000000002Q116.59800000000001 -21.762 116.058 -19.224Q115.518 -16.686 115.059 -14.418Q114.60000000000001 -12.15 114.22200000000001 -10.53Q113.14200000000001 -6.102 110.87400000000001 -3.591Q108.60600000000001 -1.08 105.87900000000002 -0.05400000000000005Q103.15200000000002 0.972 100.668 0.972Z M117.60000000000001 0.054 120.40800000000002 -13.986Q121.05600000000001 -17.874 121.81200000000001 -21.978Q122.56800000000001 -26.082 123.24300000000002 -30.078Q123.91800000000002 -34.074 124.29600000000002 -37.583999999999996Q127.37400000000001 -38.556 130.93800000000002 -39.015Q134.502 -39.474 138.012 -39.474Q142.116 -39.474 143.601 -37.69199999999999Q145.086 -35.91 145.086 -32.886Q145.086 -30.131999999999998 143.79000000000002 -27.351Q142.49400000000003 -24.57 140.41500000000002 -22.329Q138.336 -20.088 135.852 -18.791999999999998Q136.824 -16.632 137.931 -14.067Q139.038 -11.502 140.01000000000002 -9.18Q140.55 -7.83 141.11700000000002 -6.48Q141.68400000000003 -5.13 142.22400000000002 -3.78L133.854 -0.864Q133.31400000000002 -2.754 132.82800000000003 -4.482Q132.342 -6.21 131.91000000000003 -7.884Q131.37 -9.882 130.88400000000001 -11.745000000000001Q130.39800000000002 -13.608 130.04700000000003 -15.066Q129.69600000000003 -16.524 129.64200000000002 -17.118L128.94000000000003 -16.902Q128.616 -15.174 128.157 -12.69Q127.69800000000001 -10.206 127.32000000000002 -7.884L126.34800000000001 -2.214ZM130.29000000000002 -23.382Q131.262 -23.49 132.693 -24.219Q134.12400000000002 -24.948 135.555 -26.028Q136.98600000000002 -27.108 137.95800000000003 -28.242Q138.93 -29.376 138.93 -30.24Q138.93 -31.32 137.661 -31.671Q136.39200000000002 -32.022 134.34 -32.022H133.15200000000002Q132.828 -31.968 132.558 -31.968Q132.288 -31.968 132.01800000000003 -31.968Z M144.792 0.054 151.866 -38.339999999999996 168.93 -39.798Q168.55200000000002 -38.61 168.282 -37.368Q168.012 -36.342 167.769 -35.235Q167.526 -34.128 167.364 -33.264Q166.662 -33.21 165.366 -33.183Q164.07000000000002 -33.156 162.72000000000003 -33.129Q161.37 -33.102 160.39800000000002 -33.102Q159.42600000000002 -33.102 159.372 -33.102L157.48200000000003 -23.436L160.614 -23.598Q161.20800000000003 -23.652 161.829 -23.652Q162.45000000000002 -23.652 163.044 -23.652Q163.638 -23.652 164.12400000000002 -23.652Q164.61 -23.652 164.88000000000002 -23.706Q164.77200000000002 -22.95 164.69100000000003 -22.221Q164.61 -21.492 164.502 -20.736L164.01600000000002 -17.766Q163.746 -17.712 163.31400000000002 -17.712Q162.882 -17.712 162.288 -17.712Q161.69400000000002 -17.658 161.04600000000002 -17.658Q160.39800000000002 -17.658 159.804 -17.604Q159.102 -17.55 158.346 -17.55Q157.59 -17.55 156.726 -17.496L154.89000000000001 -7.56L162.774 -8.802L162.234 -2.646Z M169.014 0.27Q168.258 0.27 167.502 0.189Q166.746 0.108 165.99 0.0L168.852 -14.526Q169.392 -17.496 170.013 -20.817Q170.63400000000001 -24.137999999999998 171.228 -27.405Q171.822 -30.672 172.281 -33.48Q172.74 -36.288 173.01 -38.232Q175.332 -38.664 177.708 -39.042Q180.084 -39.42 182.568 -39.42Q186.564 -39.42 188.886 -37.772999999999996Q191.208 -36.126 192.23399999999998 -33.453Q193.26 -30.78 193.26 -27.594Q193.26 -24.732 192.45 -21.573Q191.64 -18.414 190.155 -15.309000000000001Q188.67000000000002 -12.204 186.618 -9.45Q183.43200000000002 -5.184 178.86900000000003 -2.457Q174.306 0.27 169.014 0.27ZM175.44 -6.534Q177.33 -7.776 179.031 -10.314Q180.732 -12.852 182.244 -16.416Q183.594 -19.71 184.35 -22.653Q185.106 -25.596 185.106 -27.54Q185.106 -29.538 183.999 -30.672Q182.892 -31.806 180.516 -31.806Q179.652 -27.162 178.761 -23.22Q177.87 -19.278 177.03300000000002 -15.282Q176.196 -11.286 175.44 -6.534Z M212.426 0.054Q214.046 -7.236 215.504 -14.202Q216.09799999999998 -17.01 216.719 -20.223Q217.34 -23.436 217.988 -26.73Q218.636 -30.024 219.176 -32.967Q219.716 -35.91 220.04 -38.124Q222.2 -38.772 224.71099999999998 -39.312Q227.22199999999998 -39.852 229.22 -39.852Q232.45999999999998 -39.852 234.35 -38.474999999999994Q236.24 -37.098 237.05 -34.775999999999996Q237.85999999999999 -32.454 237.85999999999999 -29.7Q237.85999999999999 -26.676 236.753 -23.895Q235.646 -21.114 233.783 -18.9Q231.92 -16.686 229.517 -15.39Q227.114 -14.094 224.522 -14.094H223.928Q223.49599999999998 -12.258 223.118 -10.097999999999999Q222.73999999999998 -7.938 222.47 -6.102Q222.254 -5.022 222.09199999999998 -3.942Q221.93 -2.862 221.768 -1.782ZM225.00799999999998 -19.764Q226.25 -20.088 227.492 -21.411Q228.73399999999998 -22.733999999999998 229.54399999999998 -24.786Q230.35399999999998 -26.838 230.35399999999998 -29.268Q230.35399999999998 -31.266 229.463 -32.292Q228.572 -33.318 227.492 -33.318Q226.898 -29.754 226.30399999999997 -26.568Q225.70999999999998 -23.382 225.00799999999998 -19.764Z M236.27 0.054 239.078 -13.986Q239.726 -17.874 240.482 -21.978Q241.238 -26.082 241.913 -30.078Q242.588 -34.074 242.966 -37.583999999999996Q246.044 -38.556 249.608 -39.015Q253.172 -39.474 256.682 -39.474Q260.786 -39.474 262.27099999999996 -37.69199999999999Q263.756 -35.91 263.756 -32.886Q263.756 -30.131999999999998 262.46 -27.351Q261.164 -24.57 259.085 -22.329Q257.006 -20.088 254.522 -18.791999999999998Q255.494 -16.632 256.601 -14.067Q257.708 -11.502 258.68 -9.18Q259.22 -7.83 259.78700000000003 -6.48Q260.354 -5.13 260.894 -3.78L252.524 -0.864Q251.984 -2.754 251.498 -4.482Q251.012 -6.21 250.58 -7.884Q250.04 -9.882 249.554 -11.745000000000001Q249.068 -13.608 248.717 -15.066Q248.366 -16.524 248.312 -17.118L247.61 -16.902Q247.286 -15.174 246.827 -12.69Q246.368 -10.206 245.99 -7.884L245.018 -2.214ZM248.96 -23.382Q249.93200000000002 -23.49 251.363 -24.219Q252.794 -24.948 254.22500000000002 -26.028Q255.656 -27.108 256.62800000000004 -28.242Q257.6 -29.376 257.6 -30.24Q257.6 -31.32 256.331 -31.671Q255.062 -32.022 253.01 -32.022H251.822Q251.498 -31.968 251.228 -31.968Q250.958 -31.968 250.688 -31.968Z M272.804 0.216Q269.23999999999995 0.216 266.972 -2.538Q264.70399999999995 -5.292 264.70399999999995 -10.854Q264.70399999999995 -13.932 265.4599999999999 -17.334Q266.21599999999995 -20.736 267.566 -24.03Q268.916 -27.323999999999998 270.698 -30.131999999999998Q273.55999999999995 -34.668 277.28599999999994 -37.53Q281.01199999999994 -40.392 285.116 -40.392Q288.356 -40.392 290.111 -38.745000000000005Q291.866 -37.098 292.568 -34.533Q293.27 -31.968 293.27 -29.214Q293.27 -22.788 291.299 -17.253Q289.328 -11.718 286.19599999999997 -7.884Q283.06399999999996 -3.942 279.52699999999993 -1.863Q275.98999999999995 0.216 272.804 0.216ZM275.71999999999997 -8.693999999999999Q278.15 -8.693999999999999 280.013 -10.314Q281.876 -11.934 283.17199999999997 -14.445Q284.46799999999996 -16.956 285.116 -19.71Q285.76399999999995 -22.464 285.76399999999995 -24.678Q285.76399999999995 -25.541999999999998 285.602 -26.540999999999997Q285.44 -27.54 284.9 -28.296Q284.35999999999996 -29.052 283.226 -29.052Q280.74199999999996 -29.052 278.74399999999997 -27.243000000000002Q276.746 -25.434 275.39599999999996 -22.68Q274.046 -19.872 273.398 -17.172Q272.75 -14.472 272.75 -12.258Q272.75 -11.124 273.55999999999995 -9.908999999999999Q274.36999999999995 -8.693999999999999 275.71999999999997 -8.693999999999999Z M298.322 0.054Q296.81 0.054 295.055 -0.594Q293.3 -1.242 291.19399999999996 -2.808L294.91999999999996 -11.124Q295.19 -10.584 295.97299999999996 -10.178999999999998Q296.756 -9.774 297.674 -9.774Q298.376 -9.774 298.91599999999994 -10.908Q299.45599999999996 -12.042 299.807 -13.661999999999999Q300.158 -15.282 300.374 -16.713Q300.59 -18.144 300.644 -18.738Q301.18399999999997 -21.384 301.66999999999996 -23.976Q302.156 -26.568 302.58799999999997 -29.214Q303.02 -31.806 303.587 -34.398Q304.154 -36.99 304.748 -39.582Q307.178 -39.798 309.527 -40.257000000000005Q311.876 -40.716 314.252 -41.364Q313.442 -38.61 312.578 -35.126999999999995Q311.714 -31.644 310.904 -27.918Q310.094 -24.192 309.365 -20.682000000000002Q308.63599999999997 -17.172 308.096 -14.363999999999999Q307.61 -12.096 306.908 -9.585Q306.20599999999996 -7.074 305.072 -4.8870000000000005Q303.938 -2.7 302.291 -1.3230000000000002Q300.644 0.054 298.322 0.054Z M311.15 0.054 318.22399999999993 -38.339999999999996 335.28799999999995 -39.798Q334.90999999999997 -38.61 334.64 -37.368Q334.36999999999995 -36.342 334.12699999999995 -35.235Q333.88399999999996 -34.128 333.722 -33.264Q333.02 -33.21 331.72399999999993 -33.183Q330.42799999999994 -33.156 329.078 -33.129Q327.72799999999995 -33.102 326.756 -33.102Q325.78399999999993 -33.102 325.72999999999996 -33.102L323.84 -23.436L326.972 -23.598Q327.566 -23.652 328.18699999999995 -23.652Q328.80799999999994 -23.652 329.402 -23.652Q329.996 -23.652 330.48199999999997 -23.652Q330.96799999999996 -23.652 331.23799999999994 -23.706Q331.12999999999994 -22.95 331.049 -22.221Q330.96799999999996 -21.492 330.85999999999996 -20.736L330.37399999999997 -17.766Q330.104 -17.712 329.67199999999997 -17.712Q329.23999999999995 -17.712 328.64599999999996 -17.712Q328.05199999999996 -17.658 327.404 -17.658Q326.756 -17.658 326.162 -17.604Q325.46 -17.55 324.70399999999995 -17.55Q323.948 -17.55 323.08399999999995 -17.496L321.24799999999993 -7.56L329.13199999999995 -8.802L328.592 -2.646Z M341.9599999999999 0.108Q338.55799999999994 0.108 336.3979999999999 -3.0780000000000003Q334.23799999999994 -6.264 334.23799999999994 -11.826Q334.23799999999994 -16.902 335.64199999999994 -21.843Q337.04599999999994 -26.784 339.58399999999995 -30.726Q342.12199999999996 -34.668 345.60499999999996 -37.071Q349.08799999999997 -39.474 353.29999999999995 -39.474Q355.94599999999997 -39.474 357.83599999999996 -37.422Q359.72599999999994 -35.37 359.72599999999994 -31.913999999999998V-31.266Q359.72599999999994 -31.05 359.72599999999994 -30.887999999999998Q359.72599999999994 -30.726 359.67199999999997 -30.509999999999998L352.59799999999996 -28.62Q351.94999999999993 -29.97 351.08599999999996 -29.97Q349.78999999999996 -29.97 348.3589999999999 -27.863999999999997Q346.92799999999994 -25.758 345.63199999999995 -22.842Q344.768 -20.898 344.09299999999996 -18.846Q343.41799999999995 -16.794 343.03999999999996 -15.012Q342.6619999999999 -13.23 342.6619999999999 -12.096Q342.6619999999999 -10.422 343.14799999999997 -9.666Q343.52599999999995 -8.964 344.33599999999996 -8.964Q345.14599999999996 -8.964 346.11799999999994 -9.747Q347.09 -10.53 347.92699999999996 -11.718Q348.76399999999995 -12.906 349.03399999999993 -14.094L355.18999999999994 -11.61Q352.5439999999999 -5.562 348.89899999999994 -2.7270000000000003Q345.25399999999996 0.108 341.9599999999999 0.108Z M362.34799999999996 0.054Q362.94199999999995 -2.916 363.563 -5.859Q364.18399999999997 -8.802 364.72399999999993 -11.664Q366.77599999999995 -21.924 368.07199999999995 -31.32Q367.47799999999995 -31.428 366.8299999999999 -31.455Q366.18199999999996 -31.482 365.58799999999997 -31.428Q364.2919999999999 -31.32 363.04999999999995 -31.752Q363.1039999999999 -32.184 363.1039999999999 -32.697Q363.1039999999999 -33.21 363.1039999999999 -33.75Q363.1039999999999 -34.344 363.1039999999999 -34.911Q363.1039999999999 -35.478 363.15799999999996 -36.018Q363.21199999999993 -36.612 363.21199999999993 -37.287Q363.21199999999993 -37.961999999999996 363.26599999999996 -38.664Q364.66999999999996 -38.556 366.07399999999996 -38.501999999999995Q367.47799999999995 -38.448 368.88199999999995 -38.448Q372.87799999999993 -38.448 376.5229999999999 -38.718Q380.16799999999995 -38.988 383.2459999999999 -39.366L382.65199999999993 -36.45L382.16599999999994 -33.912Q381.89599999999996 -32.508 381.67999999999995 -31.698Q381.08599999999996 -31.536 380.49199999999996 -31.428Q379.89799999999997 -31.32 379.3039999999999 -31.266Q378.7099999999999 -31.212 378.08899999999994 -31.104Q377.46799999999996 -30.996 376.87399999999997 -30.887999999999998Q376.06399999999996 -26.892 375.55099999999993 -23.976Q375.03799999999995 -21.06 374.6329999999999 -18.387Q374.22799999999995 -15.714 373.68799999999993 -12.528Q372.7699999999999 -7.074 372.0679999999999 -1.458Z M389.2699999999999 0.108Q387.10999999999996 0.108 384.94999999999993 -1.053Q382.78999999999996 -2.214 380.7919999999999 -4.752L384.78799999999995 -12.582Q385.38199999999995 -11.556 386.54299999999995 -10.638Q387.70399999999995 -9.72 388.99999999999994 -9.18Q390.29599999999994 -8.64 391.21399999999994 -8.64Q392.61799999999994 -8.64 393.88699999999994 -9.504000000000001Q395.15599999999995 -10.368 395.15599999999995 -11.826Q395.15599999999995 -13.716 393.42799999999994 -15.282Q391.69999999999993 -16.848 389.53999999999996 -18.36Q387.43399999999997 -19.872 385.679 -21.789Q383.9239999999999 -23.706 383.9239999999999 -26.19Q383.9239999999999 -28.998 385.5439999999999 -31.401000000000003Q387.16399999999993 -33.804 389.756 -35.613Q392.34799999999996 -37.422 395.29099999999994 -38.421Q398.2339999999999 -39.42 400.87999999999994 -39.42Q402.7699999999999 -39.42 404.38999999999993 -38.799Q406.00999999999993 -38.178 406.98199999999997 -36.774Q407.95399999999995 -35.37 407.95399999999995 -32.994Q407.95399999999995 -32.616 407.9269999999999 -32.238Q407.8999999999999 -31.86 407.84599999999995 -31.482Q407.7919999999999 -31.104 407.7109999999999 -30.698999999999998Q407.62999999999994 -30.294 407.57599999999996 -29.862L399.7459999999999 -27.594Q399.8539999999999 -28.026 399.93499999999995 -28.458Q400.01599999999996 -28.89 400.01599999999996 -29.322Q400.01599999999996 -30.942 399.44899999999996 -31.671Q398.88199999999995 -32.4 397.96399999999994 -32.4Q397.47799999999995 -32.4 396.55999999999995 -31.887Q395.64199999999994 -31.374 394.91299999999995 -30.482999999999997Q394.18399999999997 -29.592 394.18399999999997 -28.512Q394.18399999999997 -26.73 395.669 -25.569000000000003Q397.15399999999994 -24.408 399.09799999999996 -23.22Q400.01599999999996 -22.68 401.15 -21.519Q402.28399999999993 -20.358 403.121 -18.387Q403.95799999999997 -16.416 403.95799999999997 -13.338Q403.95799999999997 -9.342 401.98699999999997 -6.3180000000000005Q400.01599999999996 -3.294 396.66799999999995 -1.593Q393.31999999999994 0.108 389.2699999999999 0.108Z" fill="#FFFFFF" stroke="#000" stroke-width="1.6" stroke-linejoin="round" paint-order="stroke"/></g>
</svg>
